<mxfile host="drawio-plugin" modified="2022-01-25T10:43:23.525Z" agent="5.0 (Macintosh; Intel Mac OS X 12_1_0) AppleWebKit/537.36 (KHTML, like Gecko) Chrome/89.0.4389.90 Safari/537.36" version="15.5.4" etag="zpLCB9CskkimgrHbirTe" type="embed"><diagram id="AVayKpkQgyqEWgI0gjAR" name="Page-1"><mxGraphModel dx="986" dy="587" grid="1" gridSize="10" guides="1" tooltips="1" connect="1" arrows="1" fold="1" page="1" pageScale="1" pageWidth="850" pageHeight="1100" math="0" shadow="0"><root><mxCell id="0"/><mxCell id="1" parent="0"/><mxCell id="17" style="edgeStyle=orthogonalEdgeStyle;rounded=0;orthogonalLoop=1;jettySize=auto;html=1;" edge="1" parent="1" source="18" target="20"><mxGeometry relative="1" as="geometry"><mxPoint x="350" y="110" as="targetPoint"/></mxGeometry></mxCell><mxCell id="18" value="PR&amp;nbsp;" style="rounded=1;whiteSpace=wrap;html=1;" vertex="1" parent="1"><mxGeometry x="80" y="80" width="120" height="60" as="geometry"/></mxCell><mxCell id="19" style="edgeStyle=orthogonalEdgeStyle;rounded=0;orthogonalLoop=1;jettySize=auto;html=1;" edge="1" parent="1" source="20" target="23"><mxGeometry relative="1" as="geometry"><mxPoint x="520" y="110" as="targetPoint"/></mxGeometry></mxCell><mxCell id="20" value="reveiw" style="rounded=1;whiteSpace=wrap;html=1;" vertex="1" parent="1"><mxGeometry x="245" y="80" width="120" height="60" as="geometry"/></mxCell><mxCell id="21" value="yes" style="edgeStyle=orthogonalEdgeStyle;rounded=0;orthogonalLoop=1;jettySize=auto;html=1;" edge="1" parent="1" source="23" target="25"><mxGeometry relative="1" as="geometry"><mxPoint x="630" y="110" as="targetPoint"/></mxGeometry></mxCell><mxCell id="22" value="No" style="edgeStyle=orthogonalEdgeStyle;rounded=0;orthogonalLoop=1;jettySize=auto;html=1;" edge="1" parent="1" source="23"><mxGeometry relative="1" as="geometry"><mxPoint x="906" y="80" as="targetPoint"/><Array as="points"><mxPoint x="460" y="50"/><mxPoint x="906" y="50"/></Array></mxGeometry></mxCell><mxCell id="23" value="Open&amp;nbsp;&lt;br&gt;Comments" style="rhombus;whiteSpace=wrap;html=1;" vertex="1" parent="1"><mxGeometry x="420" y="70" width="80" height="80" as="geometry"/></mxCell><mxCell id="24" style="edgeStyle=orthogonalEdgeStyle;rounded=0;orthogonalLoop=1;jettySize=auto;html=1;" edge="1" parent="1" source="25" target="28"><mxGeometry relative="1" as="geometry"><mxPoint x="750" y="110" as="targetPoint"/></mxGeometry></mxCell><mxCell id="25" value="calarify comments&amp;nbsp;" style="rounded=1;whiteSpace=wrap;html=1;" vertex="1" parent="1"><mxGeometry x="560" y="80" width="120" height="60" as="geometry"/></mxCell><mxCell id="26" style="edgeStyle=orthogonalEdgeStyle;rounded=0;orthogonalLoop=1;jettySize=auto;html=1;entryX=0.5;entryY=1;entryDx=0;entryDy=0;" edge="1" parent="1" source="28" target="23"><mxGeometry relative="1" as="geometry"><Array as="points"><mxPoint x="750" y="220"/><mxPoint x="460" y="220"/></Array></mxGeometry></mxCell><mxCell id="27" value="yes" style="edgeLabel;html=1;align=center;verticalAlign=middle;resizable=0;points=[];" vertex="1" connectable="0" parent="26"><mxGeometry x="-0.4242" y="1" relative="1" as="geometry"><mxPoint as="offset"/></mxGeometry></mxCell><mxCell id="28" value="resolved" style="rhombus;whiteSpace=wrap;html=1;" vertex="1" parent="1"><mxGeometry x="710" y="70" width="80" height="80" as="geometry"/></mxCell><mxCell id="32" value="" style="edgeStyle=orthogonalEdgeStyle;rounded=0;orthogonalLoop=1;jettySize=auto;html=1;" edge="1" parent="1" source="29" target="31"><mxGeometry relative="1" as="geometry"/></mxCell><mxCell id="29" value="CI pipeline" style="shape=parallelogram;perimeter=parallelogramPerimeter;whiteSpace=wrap;html=1;fixedSize=1;" vertex="1" parent="1"><mxGeometry x="850" y="80" width="120" height="60" as="geometry"/></mxCell><mxCell id="35" value="yes" style="edgeStyle=orthogonalEdgeStyle;rounded=0;orthogonalLoop=1;jettySize=auto;html=1;" edge="1" parent="1" source="31" target="34"><mxGeometry relative="1" as="geometry"><Array as="points"><mxPoint x="1110" y="260"/><mxPoint x="190" y="260"/></Array></mxGeometry></mxCell><mxCell id="31" value="Green" style="rhombus;whiteSpace=wrap;html=1;" vertex="1" parent="1"><mxGeometry x="1070" y="70" width="80" height="80" as="geometry"/></mxCell><mxCell id="37" value="" style="edgeStyle=orthogonalEdgeStyle;rounded=0;orthogonalLoop=1;jettySize=auto;html=1;" edge="1" parent="1" source="34" target="36"><mxGeometry relative="1" as="geometry"/></mxCell><mxCell id="34" value="Merge develop" style="whiteSpace=wrap;html=1;" vertex="1" parent="1"><mxGeometry x="140" y="300" width="120" height="60" as="geometry"/></mxCell><mxCell id="36" value="Build pipeline" style="whiteSpace=wrap;html=1;" vertex="1" parent="1"><mxGeometry x="340" y="300" width="120" height="60" as="geometry"/></mxCell></root></mxGraphModel></diagram></mxfile>